<svg width="24" height="24" viewBox="0 0 20 21" fill="currentColor" xmlns="http://www.w3.org/2000/svg">
<path d="M5.83366 3.83341C5.83366 2.91294 6.57985 2.16675 7.50033 2.16675H12.5003C13.4208 2.16675 14.167 2.91294 14.167 3.83341V5.50008H15.8251C15.8302 5.50003 15.8354 5.50003 15.8405 5.50008H17.5003C17.9606 5.50008 18.3337 5.87318 18.3337 6.33342C18.3337 6.79365 17.9606 7.16675 17.5003 7.16675H16.6096L15.8868 17.2855C15.8245 18.1577 15.0988 18.8334 14.2244 18.8334H5.77626C4.90186 18.8334 4.17613 18.1577 4.11383 17.2855L3.39106 7.16675H2.50033C2.04009 7.16675 1.66699 6.79365 1.66699 6.33342C1.66699 5.87318 2.04009 5.50008 2.50033 5.50008H4.16011C4.16528 5.50003 4.17044 5.50003 4.17559 5.50008H5.83366V3.83341ZM7.50033 5.50008H12.5003V3.83341H7.50033V5.50008ZM5.06197 7.16675L5.77626 17.1667H14.2244L14.9387 7.16675H5.06197ZM8.33366 8.83342C8.7939 8.83342 9.16699 9.20651 9.16699 9.66675V14.6667C9.16699 15.127 8.7939 15.5001 8.33366 15.5001C7.87342 15.5001 7.50033 15.127 7.50033 14.6667V9.66675C7.50033 9.20651 7.87342 8.83342 8.33366 8.83342ZM11.667 8.83342C12.1272 8.83342 12.5003 9.20651 12.5003 9.66675V14.6667C12.5003 15.127 12.1272 15.5001 11.667 15.5001C11.2068 15.5001 10.8337 15.127 10.8337 14.6667V9.66675C10.8337 9.20651 11.2068 8.83342 11.667 8.83342Z" />
</svg>
