<svg id="Layer_1" data-name="Layer 1" xmlns="http://www.w3.org/2000/svg" viewBox="0 0 694.48 595.28"><defs><style>.cls-1{fill:#f8d62d;}.cls-2{fill:#edbf07;}.cls-3{fill:#cca000;}.cls-4{fill:#b38000;}.cls-5{fill:#fae166;}.cls-6{fill:#ffeb85;}</style></defs><rect class="cls-1" x="-0.01" width="694.49" height="595.28"/><polygon class="cls-2" points="140.37 263.16 59.52 357.41 61 375.02 74.65 398.83 138.14 370.31 127.72 307.31 167.16 285.48 140.37 263.16"/><polygon class="cls-3" points="196.18 269.36 194.94 297.64 131.99 333.1 127.72 307.31 196.18 269.36"/><polygon class="cls-4" points="140.37 263.16 167.16 285.48 254.84 236.62 231.98 202.39 208.83 222.24 181.91 215.41 140.37 263.16"/><polygon class="cls-5" points="181.91 215.41 212.63 172.46 231.98 202.39 208.83 222.24 181.91 215.41"/><polygon class="cls-2" points="196.18 269.36 194.94 297.64 259.35 259.94 254.84 236.62 196.18 269.36"/><polygon class="cls-6" points="182.78 304.49 204.28 335.24 164.93 363.2 144.84 367.25 138.14 370.31 131.99 333.1 182.78 304.49"/><polygon class="cls-5" points="74.65 398.83 93 453.9 113.34 441.87 134.54 439.51 163.32 410.74 138.14 370.31 74.65 398.83"/><polygon class="cls-1" points="138.14 370.31 163.32 410.74 179.51 418.23 222.97 375.27 207.69 358.77 226.95 341.9 217.53 325.82 164.93 363.2 144.84 367.25 138.14 370.31"/><polygon class="cls-4" points="182.78 304.49 204.28 335.24 240.45 309.51 236.24 294.29 226.94 299 218.62 283.77 194.94 297.64 182.78 304.49"/><polygon class="cls-5" points="240.45 309.51 236.24 294.29 226.94 299 218.62 283.77 259.35 259.94 275.33 294.54 240.45 309.51"/><polygon class="cls-2" points="240.45 309.51 250.93 330.01 271.77 334.22 276.6 333.23 295.89 343.03 295.39 332.61 275.33 294.54 240.45 309.51"/><polygon class="cls-1" points="212.63 172.46 215.12 169.03 197.61 146.39 206.94 136.14 229.53 151.93 279.4 104.05 279.4 127.24 295.77 141.25 284.98 150.43 285.6 157 270.3 169.78 264.27 161.59 254.2 164.07 240.33 194.33 231.98 202.39 212.63 172.46"/><polygon class="cls-6" points="240.33 194.33 254.2 164.07 264.27 161.59 281.83 185.44 263.31 200.82 268.36 219.51 254.84 236.62 231.98 202.39 240.33 194.33"/><polygon class="cls-5" points="268.36 219.51 276.46 233.4 302.92 233.4 288.2 245.96 259.35 259.94 254.84 236.62 268.36 219.51"/><polygon class="cls-1" points="281.83 185.44 319.7 226.87 302.92 233.4 276.46 233.4 268.36 219.51 263.31 200.82 281.83 185.44"/><polygon class="cls-5" points="270.3 169.78 285.6 157 310.52 165.93 337.06 185.44 308.91 202.39 306.65 212.6 281.83 185.44 270.3 169.78"/><polygon class="cls-4" points="295.77 141.25 320.11 139.39 325.4 145.35 333.67 129.64 358.97 142.87 376 140.39 377.82 143.94 365.34 154.28 350.32 161.59 341.86 175.03 337.06 185.44 310.52 165.93 285.6 157 284.98 150.43 295.77 141.25"/><polygon class="cls-3" points="279.4 104.05 290.6 94.5 298.04 109.38 313.75 120.46 318.96 120.05 333.67 129.64 325.4 145.35 320.11 139.39 295.77 141.25 279.4 127.24 279.4 104.05"/><polygon class="cls-2" points="290.6 94.5 328.38 57.87 393.45 133.11 376 140.39 358.97 142.87 333.67 129.64 318.96 120.05 313.75 120.46 298.04 109.38 290.6 94.5"/><polygon class="cls-6" points="393.45 133.11 404.69 147.74 396.92 153.12 400.73 159.07 377.82 174.86 388.16 191.23 413.87 177.92 417.84 181.97 424.62 178 427.26 181.72 358.97 231.08 337.06 185.44 341.86 175.03 350.32 161.59 365.34 154.28 377.82 143.94 376 140.39 393.45 133.11"/><polygon class="cls-3" points="319.7 226.87 350.32 213.06 337.06 185.44 308.91 202.39 306.65 212.6 319.7 226.87"/><polygon class="cls-1" points="319.7 226.87 333.78 235.07 347.6 226.51 358.58 242.02 364.45 238.26 358.97 231.08 350.32 213.06 319.7 226.87"/><polygon class="cls-4" points="358.97 231.08 371.66 247.72 428.21 209.77 422.57 200.35 434.73 190.74 427.26 181.72 358.97 231.08"/><polygon class="cls-2" points="288.2 245.96 305.25 268.43 329.99 252.25 323.11 242.02 333.78 235.07 319.7 226.87 302.92 233.4 288.2 245.96"/><polygon class="cls-3" points="371.66 247.72 371.66 252.62 382.89 265.02 372.22 276.68 339.61 293.48 334.58 287.78 322.24 292.86 309.53 280.52 305.25 268.43 329.99 252.25 323.11 242.02 333.78 235.07 347.6 226.51 358.58 242.02 364.45 238.26 371.66 247.72"/><polygon class="cls-4" points="259.35 259.94 275.33 294.54 275.48 294.82 309.53 280.52 305.25 268.43 288.2 245.96 259.35 259.94"/><polygon class="cls-1" points="323.67 329.55 297.11 285.74 290.93 288.34 275.48 294.82 295.39 332.61 295.89 343.03 323.67 329.55"/><polygon class="cls-6" points="339.61 293.48 334.58 287.78 322.24 292.86 309.53 280.52 297.11 285.74 323.67 329.55 342.35 329.96 371.66 302.41 354.63 285.74 339.61 293.48"/><polygon class="cls-4" points="400.5 270.23 385.18 289.7 371.67 302.42 354.63 285.75 372.23 276.67 382.88 265.02 371.67 252.63 371.67 247.72 400.5 270.23"/><polygon class="cls-4" points="371.66 302.41 385.18 289.7 371.66 302.41 371.66 302.41"/><polygon class="cls-3" points="371.66 247.72 409.24 277.05 455 243.07 428.21 209.77 371.66 247.72"/><polygon class="cls-5" points="480.67 166.8 469.76 150.43 427.26 181.72 434.73 190.74 422.57 200.35 428.21 209.77 455 243.07 505.72 204.13 480.67 166.8"/><polygon class="cls-5" points="385.18 289.7 424.45 334.43 458.76 305.82 409.24 277.05 400.5 270.23 385.18 289.7"/><polygon class="cls-4" points="295.89 343.03 338.59 356.77 342.35 329.96 323.67 329.55 295.89 343.03"/><polygon class="cls-3" points="338.59 356.77 337.81 362.37 342.35 384.45 292.48 413.59 278.09 385.88 307.24 361.88 300.26 344.43 338.59 356.77"/><polygon class="cls-1" points="254.9 350.53 278.09 385.88 307.24 361.88 300.26 344.43 295.89 343.03 276.6 333.23 271.77 334.22 254.9 350.53"/><polygon class="cls-5" points="222.97 375.27 265.19 419.42 285.82 400.77 278.09 385.88 254.9 350.53 222.97 375.27"/><polygon class="cls-6" points="247.61 436.04 255.46 454.64 260.79 451.42 268.85 474.36 279.27 474.36 282.25 492.84 299.98 508.34 292.42 514.54 303.95 525.08 316.97 513.92 322.68 520.99 333.34 511.94 309.9 464.69 312.01 462.58 292.48 413.59 285.82 400.77 265.19 419.42 247.61 436.04"/><polygon class="cls-2" points="385.18 289.7 342.35 329.96 337.81 362.37 342.35 384.45 381.21 357.79 420.53 329.96 385.18 289.7"/><polygon class="cls-5" points="531.89 273.95 481.42 318.97 513.54 338.07 542.38 355.79 558.57 362.97 562.77 358.4 540.45 334.43 586.95 272.34 581.87 267.75 564.01 279.41 556.4 274.49 545.04 285.11 531.89 273.95"/><polygon class="cls-2" points="558.57 362.97 575.79 370.06 625.65 376.02 608.66 351.96 626.89 351.96 621.55 332.61 624.28 328.64 586.95 272.34 540.45 334.43 562.77 358.4 558.57 362.97"/><polygon class="cls-3" points="566.42 378.61 574.91 369.7 558.57 362.97 542.38 355.79 528.13 371.72 504.65 359.55 467.28 397.51 481.42 415.04 458.76 441.17 461.66 453.73 474.4 474.48 468.52 478.7 501.63 454.89 517.13 477.96 553.22 453.4 537.85 431.08 521.72 439.88 499.9 418.93 552.6 367.75 566.42 378.61"/><polygon class="cls-6" points="542.38 355.78 528.13 371.71 504.64 359.56 467.27 397.51 481.42 415.03 458.76 441.16 461.65 453.73 474.39 474.48 468.51 478.7 451.9 459.23 434.92 402.93 450.67 385.06 430.94 364.36 436.88 357.55 416.25 332.99 420.53 329.96 442.64 350.95 450.53 341.91 463.81 353.56 471.25 346.74 461.07 334.43 481.42 318.96 513.53 338.06 542.38 355.78"/><polygon class="cls-6" points="240.46 309.51 250.94 330.01 271.77 334.22 254.91 350.53 222.97 375.27 207.69 358.77 226.95 341.9 217.53 325.82 240.46 309.51"/><polygon class="cls-6" points="379.18 0 328.39 57.87 290.61 94.5 279.42 104.02 229.54 151.93 206.96 136.14 197.62 146.39 215.13 169.03 212.65 172.46 181.92 215.41 140.39 263.16 98 312.57 59.53 357.41 0 426.74 0 0 379.18 0"/><polygon class="cls-4" points="265.19 419.42 222.97 375.27 179.51 418.23 163.32 410.74 152.03 422.02 184.52 478.2 213.87 461.09 247.61 436.04 265.19 419.42"/></svg>