<svg width="50" height="48" viewBox="0 0 50 48" fill="none" xmlns="http://www.w3.org/2000/svg">
<g clip-path="url(#clip0_3587_42587)">
<path d="M28.0386 38.684C28.2801 38.7358 28.5635 38.7771 28.8154 38.7978V40.6596H25.7606V38.7978C26.0126 38.7771 26.296 38.7358 26.5375 38.684V37.8566H23.6191V38.6633C23.8921 38.7254 24.2175 38.7771 24.5324 38.7978V43.8971C24.2175 43.9178 23.8921 43.9695 23.6191 44.0315V44.8383H26.5375V44.0108C26.296 43.9591 26.0126 43.9178 25.7606 43.8971V41.7974H28.8154V43.8971C28.5635 43.9178 28.2801 43.9591 28.0386 44.0108V44.8383H30.957V44.0315C30.684 43.9695 30.3586 43.9178 30.0437 43.8971V38.7978C30.3586 38.7771 30.684 38.7254 30.957 38.6633V37.8566H28.0386V38.684Z" fill="#4B4B4B"/>
<path d="M5.24791 37.8152C4.37661 37.8152 3.50531 37.8566 2.93844 37.8566H2.05664V38.6633C2.32958 38.7254 2.655 38.7771 2.96993 38.7978V43.8971C2.655 43.9177 2.32958 43.9695 2.05664 44.0315V44.8383H2.96993C3.31635 44.8383 4.19815 44.8797 4.93298 44.8797C7.24245 44.8797 8.83808 43.6281 8.83808 41.2285C8.83808 38.7875 7.4419 37.8152 5.24791 37.8152ZM5.05895 43.7523C4.79651 43.7523 4.50258 43.7419 4.30312 43.7109V38.9426C4.52357 38.9219 4.8385 38.9116 5.15343 38.9116C6.79105 38.9116 7.41041 39.8114 7.41041 41.3319C7.41041 43.0075 6.43413 43.7523 5.05895 43.7523Z" fill="#4B4B4B"/>
<path d="M12.0619 39.5942C10.5188 39.5942 9.60547 40.7734 9.60547 42.3145C9.60547 44.1246 10.5188 44.9417 12.1774 44.9417C12.7967 44.9417 13.4581 44.828 14.0459 44.6314L13.9095 43.6695C13.3741 43.8453 12.8492 43.9384 12.3348 43.9384C11.3586 43.9384 10.9387 43.4523 10.9282 42.5317H14.1824C14.1824 42.5317 14.2244 42.1594 14.2244 41.7767C14.2244 40.5562 13.5841 39.5942 12.0619 39.5942ZM10.9387 41.6629C11.0121 40.9596 11.432 40.5458 11.9989 40.5458C12.5763 40.5458 12.9437 40.9285 12.9227 41.6629H10.9387Z" fill="#4B4B4B"/>
<path d="M35.9749 41.3941C35.9749 40.2563 35.471 39.584 33.8649 39.584C33.2245 39.584 32.5002 39.7391 31.9228 39.946L32.1223 40.9183C32.6262 40.7218 33.235 40.5769 33.7074 40.5769C34.4108 40.5769 34.6522 40.8666 34.6522 41.4768V41.694C32.8256 41.694 31.6289 42.2732 31.6289 43.4834C31.6289 44.3212 32.1853 44.9418 33.1196 44.9418C33.9069 44.9418 34.5472 44.5281 34.7992 43.9489L34.8097 43.9592C34.7677 44.2281 34.7572 44.5384 34.7572 44.8487C35.429 44.8694 36.2268 44.8384 36.8882 44.7556V43.9592C36.5838 43.9385 36.2269 43.8972 35.9749 43.8558V41.3941ZM34.6522 42.6973C34.6522 43.3076 34.2113 43.9489 33.5395 43.9489C33.1406 43.9489 32.8991 43.6799 32.8991 43.3283C32.8991 42.8835 33.277 42.5422 34.6522 42.5422V42.6973V42.6973Z" fill="#4B4B4B"/>
<path d="M41.7601 41.3941C41.7601 40.2563 41.2562 39.584 39.6501 39.584C39.0097 39.584 38.2854 39.7391 37.708 39.946L37.9075 40.9183C38.4113 40.7218 39.0202 40.5769 39.4926 40.5769C40.1959 40.5769 40.4374 40.8666 40.4374 41.4768V41.694C38.6108 41.694 37.4141 42.2732 37.4141 43.4834C37.4141 44.3212 37.9704 44.9418 38.9047 44.9418C39.692 44.9418 40.3324 44.5281 40.5843 43.9489L40.5948 43.9592C40.5528 44.2281 40.5423 44.5384 40.5423 44.8487C41.2142 44.8694 42.012 44.8384 42.6734 44.7556V43.9592C42.3689 43.9385 42.012 43.8972 41.7601 43.8558V41.3941ZM40.4374 42.6973C40.4374 43.3076 39.9965 43.9489 39.3246 43.9489C38.9257 43.9489 38.6843 43.6799 38.6843 43.3283C38.6843 42.8835 39.0622 42.5422 40.4374 42.5422V42.6973V42.6973Z" fill="#4B4B4B"/>
<path d="M43.1758 42.5318C43.1758 44.104 43.8686 44.9418 45.1178 44.9418C45.8107 44.9418 46.3985 44.5694 46.6715 43.9695L46.6925 43.9798C46.64 44.2488 46.6295 44.4763 46.6295 44.7349V45.0555C46.6295 45.9347 46.1571 46.3278 45.1598 46.3278C44.6454 46.3278 44.0786 46.2347 43.6167 46.0692L43.4907 47.238C43.9316 47.3414 44.4985 47.4138 45.0863 47.4138C47.0704 47.4138 47.9207 46.4933 47.9207 44.9314V39.7598C47.3538 39.6667 46.745 39.6046 46.0206 39.6046C44.1835 39.6046 43.1758 40.7941 43.1758 42.5318ZM46.619 42.1491C46.619 43.0489 46.1886 43.8661 45.4643 43.8661C44.8449 43.8661 44.551 43.3696 44.551 42.4077C44.551 41.1147 45.1073 40.6286 45.8947 40.6286C46.1571 40.6286 46.388 40.6596 46.619 40.7114V42.1491Z" fill="#4B4B4B"/>
<path d="M18.6119 39.5942C17.7511 39.5942 17.1422 40.0183 16.8273 40.6389L16.8168 40.6286C16.8693 40.3493 16.8903 39.9356 16.8903 39.6873C16.1974 39.6666 15.3996 39.6977 14.7383 39.7804V40.5769C15.0427 40.5975 15.3996 40.6389 15.6516 40.6803V44.8383H16.9638V42.3559C16.9638 41.4354 17.4991 40.6699 18.192 40.6699C18.7064 40.6699 18.8638 41.0009 18.8638 41.5491V44.8383H20.1655V41.2285C20.1655 40.3286 19.7876 39.5942 18.6119 39.5942Z" fill="#4B4B4B"/>
<path d="M38.9474 8.71946C40.2071 8.40916 41.9812 8.97804 42.2541 9.07113L41.9392 8.24367L42.4221 7.69547L41.0049 7.86096C40.585 6.93006 40.9314 6.47496 41.8447 6.47496C42.2226 6.47496 42.5166 6.66114 42.5166 6.66114L42.716 6.03019L42.5481 5.71989L42.7895 5.74058L42.8945 5.43028L41.9077 4.70625L41.7398 4.01325C41.7398 4.01325 40.9524 3.9305 40.2281 3.72363L40.2176 3.75466C39.7557 4.789 38.8319 6.90938 38.9474 8.71946ZM40.3856 4.35458C40.7005 4.37526 41.0364 4.41664 41.3094 4.45801C41.2779 4.64419 41.0889 4.789 40.858 4.789C40.5955 4.79934 40.3856 4.63385 40.3751 4.41664C40.3751 4.39595 40.3751 4.37526 40.3856 4.35458Z" fill="#4B4B4B"/>
<path d="M36.165 12.6808C35.5876 12.3602 35.1047 12.1016 34.8948 11.9982L35.1782 13.2187C35.1782 13.2187 34.8318 13.7669 34.4434 14.4082L36.165 12.6808Z" fill="#4B4B4B"/>
<path d="M40.8259 20.2315V19.704L37.4457 20.5728L35.1992 24.9377C35.8711 24.9894 36.4694 25.0515 36.9943 25.1032L36.7634 24.5136L39.6502 20.459L40.8259 20.2315Z" fill="#4B4B4B"/>
<path d="M37.4674 10.364C36.8901 11.0156 36.3022 11.6879 35.4414 11.8948C36.1552 12.2672 37.4359 12.9808 38.4752 13.6635C38.5277 13.6635 38.6012 13.6635 38.7167 13.6635C39.2625 13.6635 41.8764 13.6014 42.0864 12.4533C41.0261 12.2568 39.0631 10.6122 38.6957 9.19519C38.2338 9.4848 37.8454 9.92957 37.4674 10.364Z" fill="#4B4B4B"/>
<path d="M40.7206 16.7148C40.3531 15.515 39.1039 14.5427 38.5476 14.16L37.4453 15.484L37.6238 15.6184L40.8255 17.8836V17.4078C40.8255 17.1699 40.794 16.9424 40.7206 16.7148Z" fill="#4B4B4B"/>
<path d="M41.2758 10.3536C41.2758 9.73297 41.0238 9.31924 40.7509 9.06066C40.184 8.96757 39.5542 8.92619 39.0293 9.05031C39.2812 10.1571 40.7719 11.5431 41.7587 11.9671C41.6117 11.4189 42.1156 10.3536 41.2758 10.3536Z" fill="#4B4B4B"/>
<path d="M41.2465 6.98173C41.236 6.99207 41.2255 7.00241 41.215 7.01276C41.173 7.0955 41.1625 7.21962 41.2045 7.37477C41.4564 7.30237 41.7503 7.27134 42.0653 7.37477C42.9366 7.6437 43.9338 8.08846 44.6582 6.72314C44.6582 6.72314 43.7029 7.47821 42.6531 7.04379C42.0758 6.80589 41.6034 6.81623 41.2465 6.98173Z" fill="#4B4B4B"/>
<path d="M44.343 19.5591V17.9146L43.3562 19.2178L43.3457 20.9451C43.4927 21.1003 43.9021 21.5761 44.154 22.1346C44.8469 23.6654 44.7419 25.3617 43.8916 26.4685V27.1201C44.364 27.1098 44.8259 27.0994 45.2668 27.0787L45.1408 26.5409L45.8231 25.3721C45.8231 25.3721 45.5292 21.6278 46.348 20.821C45.8336 20.8314 44.343 20.6348 44.343 19.5591Z" fill="#4B4B4B"/>
<path d="M48.8568 12.1017C48.9303 11.8328 48.8988 11.5846 48.7728 11.3777C48.5419 11.0157 48.0275 10.7985 47.3766 10.7985H45.7285C45.7915 11.1088 45.9595 11.5225 46.4843 11.5225C47.2822 11.5225 48.6888 11.2122 48.8568 12.1017Z" fill="#4B4B4B"/>
<path d="M43.8695 12.7637L46.4204 15.2771C46.7878 15.6391 46.7878 16.2183 46.4204 16.5803C45.738 17.2527 44.7933 16.3218 44.7933 16.3218L44.0479 15.5977L40.1113 15.0495C40.5102 15.4943 40.8777 16.0321 41.0666 16.6217C41.1506 16.8803 41.1821 17.1389 41.1821 17.4182L41.1926 23.1484L42.9877 20.9969L42.9982 19.1041L44.3419 17.3354C44.7198 17.7078 45.2237 17.9146 45.759 17.9146C46.2944 17.9146 46.7983 17.7078 47.1762 17.3354C47.7011 16.8182 47.869 16.0735 47.6906 15.4219L43.502 12.2568C43.586 12.4327 43.712 12.6085 43.8695 12.7637Z" fill="#4B4B4B"/>
<path d="M31.6074 5.89563C32.3318 5.96804 32.7936 6.01975 32.8146 6.01975L33.1401 6.06113V8.64696L34.8407 10.2295C34.9666 9.84678 35.0716 9.31927 35.1976 8.67799C35.3026 8.09876 35.4285 7.47816 35.5965 6.84722L34.2423 5.99907L33.8434 5.31641H31.9643L31.6074 5.89563Z" fill="#4B4B4B"/>
<path d="M35.5343 20.6969L40.8356 19.3316V18.318L39.24 17.1906L35.2194 20.4694C35.2089 20.4694 35.3244 20.6349 35.5343 20.6969Z" fill="#4B4B4B"/>
<path d="M34.2129 11.2845C34.2759 11.3983 34.4018 11.5017 34.5173 11.5845L34.8427 11.5948C34.8637 11.5948 34.8847 11.5948 34.9162 11.5948C35.903 11.5948 36.5329 10.8811 37.1942 10.126C37.6141 9.65025 38.055 9.15377 38.6009 8.83313C38.4434 6.91961 39.4197 4.68546 39.8921 3.59941C39.4092 3.43391 39.0313 3.20636 39.0523 2.91675C38.5064 3.2167 38.5274 3.527 38.5379 3.58906L37.3832 3.08224V4.18898C35.0107 6.52657 35.9555 11.2845 34.2129 11.2845Z" fill="#4B4B4B"/>
<path d="M34.4225 24.8757C34.559 24.886 34.685 24.8964 34.8214 24.9067L36.9839 20.6866L35.7452 21.0073C35.3883 23.076 33.9921 23.7379 33.9921 23.7379C33.9921 23.7379 33.6982 23.6655 33.3938 23.6655C32.7219 23.6655 32.3965 24.7619 32.3965 24.7619C32.7534 24.7826 33.1208 24.8033 33.4987 24.824C33.8137 24.8343 34.1286 24.855 34.4225 24.8757Z" fill="#4B4B4B"/>
<path d="M38.2112 13.9117C38.0118 13.7773 37.8018 13.6428 37.5919 13.5187L34.0332 18.6386C34.3481 18.4214 34.7365 18.1318 34.915 18.0077L38.2532 13.9634C38.2322 13.9531 38.2217 13.9324 38.2112 13.9117Z" fill="#4B4B4B"/>
<path d="M43.5243 27.1305V26.3444L43.5663 26.2927C44.3746 25.2894 44.4691 23.7069 43.8287 22.2691C43.6398 21.8658 43.3668 21.4934 43.1884 21.2969L42.3276 22.3312C42.8 22.8484 43.0729 23.4379 43.0729 23.9965C43.0729 25.4135 42.0966 25.9307 42.0966 25.9307C40.9419 25.5687 40.6165 26.7168 40.543 27.1408C40.9524 27.1408 41.3723 27.1408 41.8132 27.1408C42.38 27.1408 42.9784 27.1408 43.5243 27.1305Z" fill="#4B4B4B"/>
<path d="M38.9473 14.0151C39.1677 14.1702 39.4302 14.3875 39.7031 14.6357L43.6292 15.1839C43.2093 14.7702 42.4115 13.9841 41.8026 13.3842C41.2987 13.7151 40.4379 13.9841 38.9473 14.0151Z" fill="#4B4B4B"/>
<path d="M49.8967 10.4777C49.7602 10.1881 49.5083 9.87784 48.1226 9.87784C48.6475 9.36067 48.6685 8.90556 48.448 8.68835C48.1961 9.32964 46.422 9.40204 45.1938 9.40204C44.6374 9.40204 44.249 9.60891 43.8711 9.98127C43.4092 10.4364 43.2202 11.0777 43.3147 11.6672L47.3143 14.6875C47.2723 14.6358 47.2303 14.584 47.1778 14.5323L44.6269 12.0189C44.2595 11.6569 44.2595 11.0777 44.6269 10.7156C44.7948 10.5502 45.0048 10.4467 45.1938 10.4467H47.3773C48.1436 10.4467 48.7839 10.726 49.0779 11.1914C49.2668 11.4914 49.3088 11.8534 49.1933 12.2361C49.7917 12.0086 50.2116 11.119 49.8967 10.4777Z" fill="#4B4B4B"/>
<path d="M7.45384 5.70949L7.28588 6.01979L7.48534 6.65073C7.48534 6.65073 7.77927 6.46455 8.15718 6.46455C9.07047 6.46455 9.41689 6.91966 8.99699 7.85056L7.57981 7.68506L8.0627 8.23326L7.74778 9.06073C8.03121 8.96764 9.7948 8.39875 11.0545 8.70905C11.17 6.89897 10.2357 4.77859 9.78431 3.73391L9.77381 3.70288C9.04948 3.8994 8.26216 3.99249 8.26216 3.99249L8.0942 4.6855L7.10742 5.40953L7.2124 5.71983L7.45384 5.70949ZM9.62684 4.35451C9.62684 4.3752 9.63734 4.40623 9.63734 4.42691C9.62684 4.64412 9.41689 4.79927 9.15445 4.79927C8.9235 4.78893 8.73455 4.64412 8.70306 4.46829C8.97599 4.41657 9.30142 4.3752 9.62684 4.35451Z" fill="#4B4B4B"/>
<path d="M13.8359 12.6808L15.5575 14.3978C15.1586 13.7669 14.8227 13.2083 14.8227 13.2083L15.1166 11.9982C14.8962 12.1119 14.4238 12.3602 13.8359 12.6808Z" fill="#4B4B4B"/>
<path d="M14.8025 24.9377L12.556 20.5728L9.17578 19.704V20.2315L10.3515 20.4487L13.2383 24.5033L13.0074 25.0929C13.5323 25.0515 14.1411 24.9894 14.8025 24.9377Z" fill="#4B4B4B"/>
<path d="M11.2955 13.6635C11.4005 13.6635 11.4845 13.6635 11.537 13.6635C12.5657 12.9808 13.8569 12.2775 14.5708 11.8948C13.7205 11.6879 13.1221 11.0156 12.5447 10.364C12.1668 9.92957 11.7679 9.4848 11.3165 9.19519C10.9596 10.6122 8.98604 12.2568 7.92578 12.4533C8.13573 13.6014 10.7496 13.6635 11.2955 13.6635Z" fill="#4B4B4B"/>
<path d="M12.5658 15.4942L11.4635 14.1703C10.9072 14.553 9.65794 15.5356 9.29052 16.7251C9.21704 16.9526 9.18555 17.1699 9.18555 17.4181V17.8939L12.3873 15.6287L12.5658 15.4942Z" fill="#4B4B4B"/>
<path d="M10.9822 9.06069C10.4573 8.93657 9.81699 8.97794 9.26062 9.07103C8.98768 9.32962 8.73574 9.73301 8.73574 10.3639C7.89593 10.3639 8.41031 11.4293 8.25285 11.9879C9.22912 11.5534 10.7303 10.1674 10.9822 9.06069Z" fill="#4B4B4B"/>
<path d="M7.93665 7.38515C8.25158 7.29206 8.54552 7.32309 8.79746 7.38515C8.83945 7.21966 8.82895 7.09554 8.78696 7.02313C8.77646 7.01279 8.76596 7.00245 8.75547 6.9921C8.39855 6.82661 7.92616 6.81627 7.34879 7.05416C6.29903 7.48858 5.34375 6.73352 5.34375 6.73352C6.06808 8.09884 7.06535 7.65408 7.93665 7.38515Z" fill="#4B4B4B"/>
<path d="M6.12099 27.1201V26.4685C5.27068 25.3617 5.16571 23.6654 5.85855 22.1346C6.11049 21.5657 6.5199 21.1003 6.66686 20.9451L6.65636 19.2178L5.66959 17.9146V19.5591C5.66959 20.6348 4.17893 20.8314 3.68555 20.8314C4.50436 21.6381 4.21043 25.3824 4.21043 25.3824L4.89277 26.5512L4.7668 27.0891C5.1867 27.0994 5.6486 27.1098 6.12099 27.1201Z" fill="#4B4B4B"/>
<path d="M3.51696 11.5225C4.04184 11.5225 4.2203 11.1088 4.27279 10.7985H2.62467C1.98432 10.7985 1.45944 11.0157 1.22849 11.3777C1.10252 11.5846 1.07103 11.8328 1.14451 12.1017C1.32297 11.2122 2.71915 11.5225 3.51696 11.5225Z" fill="#4B4B4B"/>
<path d="M4.24125 17.9043C4.77663 17.9043 5.28051 17.6974 5.65843 17.3251L7.00212 19.0938L7.01262 20.9866L8.8182 23.138L8.8287 17.4078C8.8287 17.1286 8.87069 16.87 8.94417 16.6114C9.12263 16.0218 9.49005 15.484 9.89945 15.0392L5.96286 15.5874L5.21753 16.3114C5.21753 16.3114 4.27275 17.2423 3.5904 16.57C3.22299 16.208 3.22299 15.6288 3.5904 15.2668L6.14132 12.7533C6.29878 12.5982 6.42475 12.4224 6.51923 12.2258L2.33069 15.3909C2.14174 16.0529 2.3097 16.7872 2.84507 17.3044C3.21249 17.6974 3.70588 17.9043 4.24125 17.9043Z" fill="#4B4B4B"/>
<path d="M15.1692 10.2192L16.8698 8.63664V6.05081L17.1952 6.00943C17.2057 6.00943 17.6781 5.95772 18.4024 5.88531L18.056 5.2854H16.1769L15.778 5.96806L14.4238 6.81621C14.6023 7.44716 14.7178 8.06775 14.8227 8.64698C14.9382 9.30895 15.0432 9.83646 15.1692 10.2192Z" fill="#4B4B4B"/>
<path d="M9.17578 19.3316L14.4771 20.6969C14.6765 20.6349 14.792 20.4694 14.792 20.4694L10.7714 17.1906L9.17578 18.318V19.3316Z" fill="#4B4B4B"/>
<path d="M11.4103 8.84347C11.9562 9.16412 12.3866 9.65025 12.817 10.1364C13.4784 10.8915 14.1082 11.6051 15.095 11.6051C15.116 11.6051 15.137 11.6051 15.1685 11.6051L15.4939 11.5948C15.6094 11.512 15.7354 11.4086 15.7983 11.2948C14.0557 11.2948 15.0005 6.53691 12.6281 4.20966V3.08224L11.4733 3.58906C11.4838 3.527 11.5048 3.2167 10.9589 2.91675C10.9799 3.20636 10.602 3.43391 10.1191 3.59941C10.5915 4.6958 11.5678 6.92996 11.4103 8.84347Z" fill="#4B4B4B"/>
<path d="M15.5895 24.8757C15.8834 24.855 16.1878 24.8343 16.5133 24.824C16.8807 24.8033 17.2586 24.7826 17.6155 24.7619C17.6155 24.7619 17.2901 23.6655 16.6182 23.6655C16.3138 23.6655 16.0199 23.7379 16.0199 23.7379C16.0199 23.7379 14.6237 23.076 14.2668 21.0073L13.0176 20.6866L15.1801 24.9067C15.3165 24.8964 15.453 24.886 15.5895 24.8757Z" fill="#4B4B4B"/>
<path d="M15.9778 18.6386L12.4192 13.5187C12.2092 13.6531 11.9993 13.7773 11.7998 13.9117C11.7893 13.9324 11.7788 13.9428 11.7578 13.9634L15.096 18.0077C15.2745 18.1318 15.6629 18.4214 15.9778 18.6386Z" fill="#4B4B4B"/>
<path d="M8.18821 27.1408C8.62911 27.1408 9.05951 27.1408 9.45842 27.1408C9.37444 26.7168 9.05951 25.5687 7.90477 25.9307C7.90477 25.9307 6.9285 25.4135 6.9285 23.9965C6.9285 23.4276 7.20144 22.8484 7.67383 22.3312L6.81303 21.2969C6.64506 21.5037 6.36163 21.8658 6.17267 22.2691C5.52182 23.7069 5.6268 25.2894 6.43511 26.2927L6.4771 26.3444V27.1305C7.02298 27.1408 7.63184 27.1408 8.18821 27.1408Z" fill="#4B4B4B"/>
<path d="M10.2984 14.6357C10.5713 14.3771 10.8338 14.1702 11.0542 14.0151C9.57408 13.9841 8.70278 13.7151 8.20939 13.3842C7.60053 13.9841 6.80272 14.7598 6.38281 15.1839L10.2984 14.6357Z" fill="#4B4B4B"/>
<path d="M0.924224 11.2018C1.21816 10.7364 1.84801 10.4571 2.62483 10.4571H4.80833C4.99729 10.4571 5.20724 10.5502 5.3752 10.726C5.74262 11.088 5.74262 11.6673 5.3752 12.0293L2.82429 14.5427C2.7718 14.5944 2.72981 14.6461 2.68782 14.6979L6.6874 11.6776C6.78188 11.0777 6.59292 10.4468 6.13103 9.99165C5.75311 9.61929 5.3647 9.41242 4.80833 9.41242C3.58011 9.41242 1.79552 9.34002 1.55408 8.69873C1.33363 8.92628 1.35462 9.37105 1.8795 9.88821C0.493823 9.88821 0.252378 10.1985 0.105412 10.4881C-0.209516 11.1294 0.210388 12.0189 0.819248 12.2568C0.703775 11.8638 0.735267 11.5018 0.924224 11.2018Z" fill="#4B4B4B"/>
<path d="M13.3112 30.368C13.3112 29.7888 12.9648 29.4578 12.3664 29.4578H11.9675L11.957 31.3713H12.3559C12.9543 31.3609 13.3112 30.9989 13.3112 30.368Z" fill="#4B4B4B"/>
<path d="M1.54297 27.5443C1.72143 29.4475 2.51924 31.33 3.78945 32.7574C5.18563 32.8401 7.0647 32.9125 9.54213 32.9125H18.4966V27.927H9.54213C5.3326 27.9374 2.81318 27.7098 1.54297 27.5443ZM6.23539 29.4682H5.99394L5.11215 31.692V31.7023H4.63976V31.692L3.74746 29.4682H3.51651V29.1372H4.51379V29.4682H4.26184L4.8707 31.1231C4.8917 31.1748 4.9022 31.2265 4.91269 31.2783V31.2886V31.2783C4.92319 31.2265 4.93369 31.1645 4.95468 31.1231L5.55305 29.4682H5.25911V29.1372H6.23539V29.4682V29.4682ZM8.71282 31.7023H8.46088C8.24043 31.7023 8.13545 31.6816 7.97799 31.4231L7.62107 30.8335C7.51609 30.6473 7.46361 30.6163 7.34813 30.6163H7.13818L7.12768 31.3713H7.42162V31.7023H6.42435V31.3713H6.67629L6.68679 29.4578H6.41385V29.1268H7.56858C8.15645 29.1268 8.3664 29.4785 8.3664 29.8095C8.3664 30.1715 8.15645 30.4198 7.81003 30.4818C7.9255 30.5232 8.00948 30.637 8.08296 30.7507L8.3664 31.2162C8.43988 31.3403 8.51337 31.361 8.57635 31.361H8.71282V31.7023ZM14.0351 29.1372H15.8722V29.1475L15.8827 29.8095V29.8302H15.5048V29.8198L15.4838 29.4682H14.7699L14.7594 30.2232H15.4943V30.5749H14.7594L14.7489 31.3817H15.5048L15.5362 30.9783V30.968H15.9142V30.9886L15.8827 31.7023V31.7127H14.0561V31.3817H14.3185L14.329 29.4682H14.0351V29.1372V29.1372ZM11.2427 31.3713H11.5052L11.5157 29.4578H11.2427V29.1268H12.4815C13.2898 29.1268 13.7937 29.5923 13.7937 30.3474C13.7937 31.1541 13.2583 31.692 12.471 31.692H11.2427V31.3713V31.3713ZM10.8123 29.1475L10.8228 29.8095V29.8302H10.4449V29.8198L10.4239 29.4682H9.71009L9.69959 30.2232H10.4344V30.5749H9.69959L9.6891 31.3817H10.4449L10.4764 30.9783V30.968H10.8543V30.9886L10.8228 31.7023V31.7127H9.00675V31.3817H9.26919L9.27969 29.4682H8.98576V29.1372H10.8123V29.1475Z" fill="#4B4B4B"/>
<path d="M0.525391 27.389V32.4262C0.525391 32.4262 1.3337 32.5917 3.29675 32.7262C2.10003 31.2574 1.3442 29.375 1.18674 27.4925C0.735342 27.4304 0.525391 27.389 0.525391 27.389Z" fill="#4B4B4B"/>
<path d="M7.48631 29.4474H7.16089L7.15039 30.2542H7.45482C7.74875 30.2542 7.92721 30.099 7.92721 29.8508C7.93771 29.5922 7.78025 29.4474 7.48631 29.4474Z" fill="#4B4B4B"/>
<path d="M35.0625 29.4474H34.7371L34.7266 30.2542H35.031C35.3249 30.2542 35.5034 30.099 35.5034 29.8508C35.5034 29.5922 35.3459 29.4474 35.0625 29.4474Z" fill="#4B4B4B"/>
<path d="M48.9081 32.5193C49.2965 32.4676 49.475 32.4262 49.475 32.4262V27.389C49.475 27.389 48.8976 27.5235 47.5645 27.6476C48.2888 28.744 48.7402 30.3783 48.9081 32.5193Z" fill="#4B4B4B"/>
<path d="M40.4578 27.9373H31.3984V32.9228H40.4578C44.7933 32.9228 47.3233 32.7056 48.5515 32.5608C48.3835 30.368 47.9111 28.7338 47.1553 27.6891C45.7171 27.8132 43.5441 27.9373 40.4578 27.9373ZM36.2903 31.692H36.0384C35.8179 31.692 35.7129 31.6713 35.5555 31.4127L35.1986 30.8231C35.0936 30.6369 35.0411 30.6059 34.9256 30.6059H34.7157L34.7052 31.361H34.9991V31.692H34.0018V31.361H34.2538L34.2643 29.4475H33.9913V29.1165H35.1461C35.7339 29.1165 35.9439 29.4681 35.9439 29.7991C35.9439 30.1611 35.7339 30.4094 35.3875 30.4714C35.503 30.5128 35.587 30.6266 35.6605 30.7404L35.9439 31.2058C36.0174 31.3299 36.0909 31.3506 36.1538 31.3506H36.2693V31.692H36.2903ZM38.4318 30.9679L38.4003 31.6816V31.692H36.5737V31.361H36.8362L36.8467 29.4475H36.5527V29.1165H38.3898V29.1268L38.4003 29.7888V29.8095H38.0329V29.7991L38.0119 29.4475H37.2981L37.2876 30.2025H38.0224V30.5542H37.2876L37.2771 31.361H38.0329L38.0644 30.9576V30.9472H38.4423L38.4318 30.9679ZM40.9197 29.9026H40.5208V29.4888C40.4473 29.4681 40.2899 29.4268 40.1009 29.4268C39.5131 29.4268 39.1876 29.7784 39.1876 30.4094C39.1876 30.9783 39.5446 31.3713 40.0484 31.3713C40.2164 31.3713 40.3949 31.3506 40.4893 31.3403L40.4998 30.8955V30.8852H40.8987V30.9059L40.8882 31.5989V31.6092H40.8777C40.6993 31.6713 40.3634 31.7333 40.0694 31.7333C39.2191 31.7333 38.6943 31.2368 38.6943 30.4301C38.6943 29.6233 39.2611 29.0751 40.1009 29.0751C40.4369 29.0751 40.7518 29.1475 40.9092 29.2096H40.9197V29.9026V29.9026ZM43.8696 29.4475H43.6071L43.5966 31.361H43.8696V31.692H42.8933V31.361H43.1557L43.1662 30.5749H42.001L41.9905 31.361H42.2634V31.692H41.2872V31.361H41.5496L41.5601 29.4475H41.2872V29.1165H42.2634V29.4475H42.001L41.9905 30.2232H43.1557L43.1662 29.4475H42.8933V29.1165H43.8696V29.4475ZM46.116 29.8198V29.8095L46.1055 29.4578H45.5492L45.5387 31.3713H45.8326V31.7023H44.8248V31.3713H45.0873L45.0978 29.4578H44.5309L44.5204 29.8095V29.8198H44.1215V29.7991L44.132 29.1372V29.1268H46.494V29.1372L46.5044 29.7991V29.8198H46.116Z" fill="#4B4B4B"/>
<path d="M10.9609 26.3547V27.1408C16.8291 27.1305 19.2855 27.1615 19.2855 27.1615L19.296 30.5128C19.8944 30.5024 20.4927 30.4921 21.1016 30.4921L19.527 26.8512L10.9609 26.3547Z" fill="#4B4B4B"/>
<path d="M34.2854 25.6721C31.4196 25.4653 27.294 25.5377 27.294 25.5377C27.294 25.5377 25.6354 26.0859 25.0055 26.1996C24.3652 26.0859 22.7171 25.5377 22.7171 25.5377C22.7171 25.5377 18.623 25.4653 15.7572 25.6721C14.067 25.7963 12.7129 25.9514 11.873 26.0548L19.7777 26.5099L21.4678 30.4094C21.4783 30.4301 21.4783 30.4508 21.4783 30.4818C22.6436 30.4714 23.8193 30.4611 25.016 30.4611C26.8531 30.4611 28.8581 30.4714 30.6112 30.5025V26.9133L37.4872 25.9617C36.8888 25.8893 35.86 25.7859 34.2854 25.6721ZM24.5121 28.5993L24.4911 29.2096V29.2199H22.906V28.9303H23.1265L23.137 27.2857H22.8745V26.9961H24.4702V27.0064L24.4806 27.5856V27.6063H24.1552V27.596L24.1342 27.296H23.5149L23.5044 27.9373H24.1447V28.2476H23.5149L23.5044 28.9406H24.1552L24.1762 28.5993V28.589H24.5016L24.5121 28.5993ZM27.189 27.2857H26.9686L26.9581 29.2096V29.2199H26.6432V29.2096L25.5304 27.7822C25.4779 27.7098 25.4254 27.6477 25.3939 27.596L25.4044 28.9303H25.6459V29.2199H24.8376V28.9303H25.058L25.0685 27.2857H24.7851V26.9961H25.3939V27.0064L26.4227 28.3304C26.4857 28.4131 26.5592 28.5269 26.6222 28.62L26.6117 27.2857H26.3597V26.9961H27.168V27.2857H27.189Z" fill="#4B4B4B"/>
<path d="M39.0727 26.1788C39.0727 26.1788 38.9782 26.1685 38.8102 26.1375L31.252 27.1511H39.0727V26.1788Z" fill="#4B4B4B"/>
<path d="M25.0046 1.16876C25.33 1.16876 25.603 0.91018 25.603 0.579193C25.603 0.25855 25.3405 -0.010376 25.0046 -0.010376C24.6792 -0.010376 24.4062 0.248207 24.4062 0.579193C24.4062 0.91018 24.6792 1.16876 25.0046 1.16876Z" fill="#4B4B4B"/>
<path d="M29.7917 2.78229C30.1171 2.78229 30.3901 2.52371 30.3901 2.19272C30.3901 1.86173 30.1276 1.60315 29.7917 1.60315C29.4663 1.60315 29.1934 1.86173 29.1934 2.19272C29.1934 2.52371 29.4663 2.78229 29.7917 2.78229Z" fill="#4B4B4B"/>
<path d="M28.4284 2.67889C28.7539 2.67889 29.0268 2.42031 29.0268 2.08933C29.0268 1.76868 28.7644 1.49976 28.4284 1.49976C28.103 1.49976 27.8301 1.75834 27.8301 2.08933C27.8301 2.42031 28.0925 2.67889 28.4284 2.67889Z" fill="#4B4B4B"/>
<path d="M27.0534 2.57538C27.3789 2.57538 27.6518 2.3168 27.6518 1.98581C27.6518 1.65482 27.3894 1.39624 27.0534 1.39624C26.728 1.39624 26.4551 1.65482 26.4551 1.98581C26.4551 2.3168 26.728 2.57538 27.0534 2.57538Z" fill="#4B4B4B"/>
<path d="M25.0996 1.89279C25.0996 2.15138 25.2676 2.35824 25.488 2.44099C25.551 2.46167 25.614 2.47202 25.6875 2.47202C26.0129 2.47202 26.2858 2.21344 26.2858 1.88245C26.2858 1.70661 26.2019 1.54112 26.0759 1.43769C25.9709 1.35494 25.8344 1.30322 25.6875 1.30322C25.362 1.30322 25.0996 1.57215 25.0996 1.89279Z" fill="#4B4B4B"/>
<path d="M30.6748 5.45089L30.9582 3.24776C29.751 3.14433 27.4835 2.88574 25.0271 2.88574C22.5391 2.88574 20.2087 3.15467 18.9805 3.2581L19.2744 5.49226C20.4921 5.36814 22.4552 5.22333 25.1426 5.22333C27.5885 5.21299 29.4361 5.32677 30.6748 5.45089ZM29.0477 4.22003C29.0687 4.03385 29.2891 3.92007 29.604 3.92007C29.6565 3.92007 29.6985 3.92007 29.751 3.93042C29.919 3.9511 30.0659 4.00282 30.1814 4.07522C30.3179 4.15797 30.3808 4.27175 30.3599 4.38552C30.3389 4.56136 30.1184 4.68548 29.8035 4.68548C29.751 4.68548 29.709 4.68548 29.6565 4.67514C29.2891 4.63376 29.0162 4.43724 29.0477 4.22003ZM27.347 3.67183L28.1029 4.07522L27.326 4.44758L26.5702 4.04419L27.347 3.67183ZM20.2822 4.67514C20.2297 4.68548 20.1877 4.68548 20.1352 4.68548C19.8203 4.68548 19.5998 4.56136 19.5788 4.38552C19.5683 4.27175 19.6313 4.16831 19.7573 4.07522C19.8728 4.00282 20.0197 3.9511 20.1877 3.93042C20.2402 3.92007 20.2822 3.92007 20.3347 3.92007C20.6496 3.92007 20.87 4.04419 20.891 4.22003C20.9225 4.43724 20.6601 4.63376 20.2822 4.67514ZM22.6126 4.44758L21.8358 4.07522L22.5916 3.67183L23.3685 4.03385L22.6126 4.44758ZM24.2608 4.00282C24.2608 3.77527 24.5652 3.59943 24.9746 3.59943C25.384 3.59943 25.6884 3.77527 25.6884 4.00282C25.6884 4.23037 25.384 4.40621 24.9746 4.40621C24.5652 4.40621 24.2608 4.23037 24.2608 4.00282Z" fill="#4B4B4B"/>
<path d="M24.323 2.48236C24.6484 2.48236 24.9213 2.22378 24.9213 1.89279C24.9213 1.57215 24.6589 1.30322 24.323 1.30322C23.9975 1.30322 23.7246 1.56181 23.7246 1.89279C23.7246 2.21343 23.9975 2.48236 24.323 2.48236Z" fill="#4B4B4B"/>
<path d="M31.3562 1.57208C31.6816 1.57208 31.9545 1.3135 31.9545 0.982514C31.9545 0.661871 31.6921 0.392944 31.3562 0.392944C31.0308 0.392944 30.7578 0.651527 30.7578 0.982514C30.7683 1.30316 31.0308 1.57208 31.3562 1.57208Z" fill="#4B4B4B"/>
<path d="M31.157 2.87543C31.4824 2.87543 31.7553 2.61684 31.7553 2.28586C31.7553 1.96522 31.4929 1.69629 31.157 1.69629C30.8315 1.69629 30.5586 1.95487 30.5586 2.28586C30.5586 2.61684 30.8315 2.87543 31.157 2.87543Z" fill="#4B4B4B"/>
<path d="M18.655 1.57208C18.9804 1.57208 19.2534 1.3135 19.2534 0.982514C19.2534 0.661871 18.9909 0.392944 18.655 0.392944C18.3296 0.392944 18.0566 0.651527 18.0566 0.982514C18.0566 1.30316 18.3296 1.57208 18.655 1.57208Z" fill="#4B4B4B"/>
<path d="M22.9597 2.57538C23.2851 2.57538 23.5581 2.3168 23.5581 1.98581C23.5581 1.65482 23.2956 1.39624 22.9597 1.39624C22.6343 1.39624 22.3613 1.65482 22.3613 1.98581C22.3613 2.3168 22.6343 2.57538 22.9597 2.57538Z" fill="#4B4B4B"/>
<path d="M18.8542 2.87543C19.1847 2.87543 19.4526 2.61147 19.4526 2.28586C19.4526 1.96025 19.1847 1.69629 18.8542 1.69629C18.5238 1.69629 18.2559 1.96025 18.2559 2.28586C18.2559 2.61147 18.5238 2.87543 18.8542 2.87543Z" fill="#4B4B4B"/>
<path d="M21.5945 2.67889C21.9199 2.67889 22.1928 2.42031 22.1928 2.08933C22.1928 1.76868 21.9304 1.49976 21.5945 1.49976C21.269 1.49976 20.9961 1.75834 20.9961 2.08933C20.9961 2.42031 21.2585 2.67889 21.5945 2.67889Z" fill="#4B4B4B"/>
<path d="M20.2195 2.78229C20.5449 2.78229 20.8178 2.52371 20.8178 2.19272C20.8178 1.86173 20.5554 1.60315 20.2195 1.60315C19.894 1.60315 19.6211 1.86173 19.6211 2.19272C19.6211 2.52371 19.894 2.78229 20.2195 2.78229Z" fill="#4B4B4B"/>
<path d="M25.0068 25.4032C25.0068 25.4032 32.3656 23.9654 32.3656 19.8902C32.3656 19.3316 32.3656 18.5973 32.3656 17.7594H33.1529V18.7214C33.2264 18.7938 33.3209 18.8558 33.4258 18.8869L37.289 13.3325C37.016 13.167 36.7431 13.0119 36.4911 12.8671L33.6358 15.7115C33.4888 15.6391 33.3314 15.5977 33.1529 15.5977V16.6837C32.691 16.7872 32.3866 17.1492 32.3656 17.7181C32.3656 13.5083 32.3656 6.75415 32.3656 6.75415C32.3656 6.75415 29.8777 6.2887 25.0068 6.2887C20.1359 6.2887 17.648 6.75415 17.648 6.75415V17.7594C17.648 17.1699 17.333 16.7872 16.8607 16.6837V15.5977C16.6822 15.5977 16.5247 15.6391 16.3778 15.7115L13.5224 12.8671C13.26 13.0119 12.987 13.167 12.7246 13.3325L16.5877 18.8869C16.6927 18.8558 16.7872 18.7938 16.8607 18.7214V17.7594H17.648V19.8902C17.6375 23.9551 25.0068 25.4032 25.0068 25.4032ZM21.4901 16.9423L21.4376 16.9837L21.3851 17.0251C21.3746 17.0354 21.3746 17.0354 21.3746 17.0354L20.9232 16.27L20.8497 16.2597L20.7448 16.4045L20.1779 17.1595C20.1779 17.1595 20.1674 17.1492 20.1464 17.1285L20.1044 17.0768L20.0624 17.0147C20.0204 16.9423 19.9889 16.8492 20.0624 16.7561C20.1149 16.6837 20.2619 16.4872 20.3983 16.3114L20.1044 16.3528L19.7475 16.8285C19.7475 16.8285 19.737 16.8182 19.716 16.7975L19.6635 16.7458L19.6215 16.6941C19.5795 16.6217 19.548 16.5286 19.6215 16.4355C19.7265 16.2907 19.9364 16.0321 19.9364 16.0321L20.6398 15.939L20.7133 15.8459L20.7763 15.7632C20.8707 15.7115 21.0177 15.7425 21.0597 15.7942C21.0597 15.7942 21.1227 15.9183 21.1752 16.0011L24.9963 17.7801L25.0488 17.7698V17.2216C25.1642 17.3147 25.2797 17.4078 25.3952 17.4905V17.8008L25.5422 17.987L25.4162 18.3076L25.0803 18.3594L24.8703 18.0904L21.4901 16.5079C21.5216 16.57 21.5531 16.6217 21.5741 16.6527C21.6056 16.7665 21.5531 16.8699 21.4901 16.9423ZM26.2455 23.2517L25.0698 23.9344C25.0698 23.9344 25.0593 23.9241 25.0488 23.893L25.0173 23.8206L25.0068 23.7586C24.9963 23.6758 25.0068 23.5724 25.1013 23.5207C25.1747 23.4793 25.3742 23.3552 25.5527 23.2517H25.2587L25.1118 23.3552H24.4189C24.4189 23.3552 24.4189 23.3345 24.4189 23.3138L24.4294 23.2311L24.4504 23.169C24.4819 23.0863 24.5449 23.0139 24.6604 23.0139H24.9438C24.9963 23.0139 25.1328 22.9104 25.2062 22.9104H25.8466V21.1003V18.649L25.6786 18.3594L25.8466 18.0594V17.8939C26.0041 18.018 26.151 18.1318 26.298 18.2456L26.361 18.3594L26.193 18.6593V20.9452V22.9208H26.6129C26.7284 22.9208 26.7914 22.9932 26.8229 23.0759L26.8334 23.138L26.8544 23.2207C26.8544 23.2414 26.8544 23.2621 26.8544 23.2621H26.2455V23.2517ZM23.6631 7.93328C24.1775 7.985 24.6499 8.59526 24.3874 9.35032L23.3902 12.1637C23.3902 12.1637 24.1145 12.1637 24.8073 12.1637C25.7311 12.1637 26.5394 12.2878 26.8859 12.4533C27.5787 12.7429 28.2085 13.1774 28.7334 13.7152C30.0561 15.0598 30.7595 17.0768 30.392 19.1454L29.6677 18.6386L28.9119 18.1215L28.6285 18.4938C28.3975 18.349 27.8831 18.0284 27.3477 17.7077L26.424 17.4491L26.2245 17.7181C26.1195 17.6353 26.0041 17.5422 25.8886 17.4595C25.3427 17.0354 24.23 16.1666 23.5686 15.608C23.3902 15.4529 23.2327 15.3288 23.1382 15.2357C22.4559 14.584 22.1199 13.8497 22.1304 13.1256C22.1304 12.7429 22.2039 12.4016 22.3194 12.1327C22.3194 12.1327 23.1907 10.1364 23.3797 9.65028H23.3692L23.4112 9.54684L22.9388 9.07105L22.5503 8.68835C22.5608 8.66766 22.8863 7.84019 23.6631 7.93328ZM20.0099 9.2262C19.8 9.19517 19.59 9.16414 19.4746 9.00899C19.4011 8.92624 19.3801 8.82281 19.3906 8.70903C19.4221 8.47114 19.674 8.2953 19.695 8.27461C19.7685 8.2229 19.863 8.24358 19.905 8.31599C19.9574 8.38839 19.9364 8.48148 19.863 8.52285C19.8105 8.56423 19.695 8.66766 19.6845 8.75041C19.6845 8.77109 19.6845 8.79178 19.7055 8.81247C19.7475 8.87453 19.905 8.89521 20.0519 8.9159C20.2724 8.94693 20.5663 8.9883 20.7133 9.21586L22.2669 8.85384L22.2984 8.89521L22.9912 9.58822L22.9807 9.6089H20.7868C20.7553 9.87783 20.5873 10.064 20.4298 10.2192C20.2409 10.4157 20.0834 10.5501 20.1884 10.8191C20.2619 10.9949 20.5663 11.088 20.5033 11.1914C20.4508 11.2949 20.0939 11.1087 19.9679 10.8915C19.716 10.4571 20.0099 10.1985 20.2094 9.99161C20.3354 9.85714 20.4508 9.74337 20.4823 9.59856H18.9812L20.3459 9.27792C20.2724 9.27792 20.1569 9.25723 20.0099 9.2262Z" fill="#4B4B4B"/>
<path d="M23.3999 8.85375C23.4944 8.85375 23.8933 8.67791 23.8933 8.67791C23.8933 8.67791 23.4944 8.50208 23.3999 8.50208C23.3054 8.50208 23.2109 8.58482 23.2109 8.67791C23.2214 8.771 23.3054 8.85375 23.3999 8.85375Z" fill="#4B4B4B"/>
<path d="M27.3364 13.2394C27.3364 13.2394 27.3469 13.2394 27.3364 13.2394C27.3994 13.3118 27.4519 13.3635 27.5044 13.4255C27.5044 13.4255 27.5044 13.4359 27.5149 13.4359C27.6198 13.56 27.7038 13.6738 27.7878 13.7876C27.8298 13.8393 27.8613 13.9013 27.9033 13.9531C27.9033 13.9634 27.9138 13.9634 27.9138 13.9737C27.9453 14.0255 27.9768 14.0772 28.0083 14.1186C28.0083 14.1289 28.0187 14.1289 28.0187 14.1392C28.0502 14.1806 28.0817 14.2323 28.1027 14.2737C28.6066 15.0495 29.142 16.1769 29.4674 17.687C29.5094 17.8422 29.5409 18.0076 29.5619 18.1731L29.8348 18.3593L30.0763 18.5248C30.2127 16.8388 29.6249 15.1632 28.4387 13.9634C27.9978 13.5083 27.4939 13.1463 26.9375 12.8877C27.1055 13.0015 27.2209 13.1152 27.3364 13.2394Z" fill="#4B4B4B"/>
<path d="M23.7871 15.0702C23.808 15.0908 24.207 15.3701 24.7213 15.7425C24.2489 15.0805 24.018 14.2841 23.9865 13.3015L23.7766 13.167C23.6926 13.2497 23.6191 13.3532 23.5456 13.4669C23.5036 13.5394 23.4616 13.6221 23.4301 13.7048C23.4091 13.7566 23.3986 13.8083 23.3881 13.86C23.2937 14.2944 23.3671 14.7805 23.7871 15.0702Z" fill="#4B4B4B"/>
<path d="M26.266 16.6527C26.6439 16.8803 26.6964 16.9113 27.0743 17.1389C27.0743 15.7425 26.7069 14.9461 26.455 14.4289C26.4235 14.3565 26.392 14.2841 26.3605 14.2221L25.9196 14.1703L25.7411 14.3979L24.429 13.5704L24.3555 13.5291C24.4709 15.0805 25.1533 15.9908 26.266 16.6527Z" fill="#4B4B4B"/>
<path d="M28.5326 18.0386L28.6166 17.9249L28.8266 17.6559L29.11 17.8525L29.1625 17.8938C29.152 17.8525 29.1415 17.8111 29.1415 17.7697C28.8056 16.1975 28.2387 15.1115 27.8188 14.4702C27.7663 14.3874 27.7138 14.3047 27.6403 14.2013L26.6641 14.0358C26.8425 14.4702 27.4934 15.3494 27.4934 17.4077C27.8923 17.6456 28.5326 18.0386 28.5326 18.0386Z" fill="#4B4B4B"/>
</g>
<defs>
<clipPath id="clip0_3587_42587">
<rect width="50" height="47.4138" fill="white"/>
</clipPath>
</defs>
</svg>
